<svg width="102" height="24" viewBox="0 0 102 24" fill="none" xmlns="http://www.w3.org/2000/svg">
<path d="M16.16 19.91V23H0.47V20.18L11.45 4.73H0.47V1.64H15.83V4.43L4.79 19.91H16.16ZM32.799 7.85V23H29.139V20.66C28.659 21.5 28.019 22.14 27.219 22.58C26.419 23.02 25.499 23.24 24.459 23.24C20.759 23.24 18.909 21.16 18.909 17V7.85H22.629V17.03C22.629 18.13 22.849 18.94 23.289 19.46C23.749 19.98 24.449 20.24 25.389 20.24C26.489 20.24 27.369 19.88 28.029 19.16C28.689 18.44 29.019 17.48 29.019 16.28V7.85H32.799ZM45.0301 7.49C45.6101 7.49 46.1101 7.57 46.5301 7.73L46.5001 11.15C45.8601 10.89 45.2001 10.76 44.5201 10.76C43.2401 10.76 42.2601 11.13 41.5801 11.87C40.9201 12.61 40.5901 13.59 40.5901 14.81V23H36.8701V12.14C36.8701 10.54 36.7901 9.11 36.6301 7.85H40.1401L40.4401 10.52C40.8201 9.54 41.4201 8.79 42.2401 8.27C43.0601 7.75 43.9901 7.49 45.0301 7.49ZM48.6181 7.85H52.3381V23H48.6181V7.85ZM52.5481 0.979999V4.67H48.3781V0.979999H52.5481ZM76.3004 1.64L66.7904 23H63.6404L54.1304 1.64H58.1504L65.2604 18.14L72.3704 1.64H76.3004ZM89.5637 15.62H79.1237C79.2037 17.24 79.6037 18.44 80.3237 19.22C81.0637 19.98 82.1537 20.36 83.5937 20.36C85.2537 20.36 86.7937 19.82 88.2137 18.74L89.2937 21.32C88.5737 21.9 87.6837 22.37 86.6237 22.73C85.5837 23.07 84.5237 23.24 83.4437 23.24C80.9637 23.24 79.0137 22.54 77.5937 21.14C76.1737 19.74 75.4637 17.82 75.4637 15.38C75.4637 13.84 75.7737 12.47 76.3937 11.27C77.0137 10.07 77.8837 9.14 79.0037 8.48C80.1237 7.8 81.3937 7.46 82.8137 7.46C84.8937 7.46 86.5337 8.14 87.7337 9.5C88.9537 10.84 89.5637 12.69 89.5637 15.05V15.62ZM82.9037 10.16C81.9037 10.16 81.0837 10.46 80.4437 11.06C79.8237 11.64 79.4237 12.49 79.2437 13.61H86.2937C86.1737 12.47 85.8237 11.61 85.2437 11.03C84.6837 10.45 83.9037 10.16 82.9037 10.16ZM97.3041 10.67V17.45C97.3041 19.23 98.1341 20.12 99.7941 20.12C100.254 20.12 100.754 20.04 101.294 19.88V22.85C100.634 23.09 99.8341 23.21 98.8941 23.21C97.1741 23.21 95.8541 22.73 94.9341 21.77C94.0141 20.81 93.5541 19.43 93.5541 17.63V10.67H90.6441V7.85H93.5541V4.16L97.3041 2.9V7.85H101.324V10.67H97.3041Z" fill="white"/>
</svg>
